<svg xmlns="http://www.w3.org/2000/svg" xmlns:xlink="http://www.w3.org/1999/xlink" width="500" zoomAndPan="magnify" viewBox="0 0 375 374.999991" height="500" preserveAspectRatio="xMidYMid meet" version="1.0"><defs><g/><clipPath id="17596621b1"><path d="M 116.140625 59 L 258.640625 59 L 258.640625 148.175781 L 116.140625 148.175781 Z M 116.140625 59 " clip-rule="nonzero"/></clipPath><clipPath id="6725394888"><path d="M 112.5 215.074219 L 262.5 215.074219 L 262.5 259 L 112.5 259 Z M 112.5 215.074219 " clip-rule="nonzero"/></clipPath><clipPath id="d817fb0693"><path d="M 116.140625 262.613281 L 258.640625 262.613281 L 258.640625 315.863281 L 116.140625 315.863281 Z M 116.140625 262.613281 " clip-rule="nonzero"/></clipPath></defs><g clip-path="url(#17596621b1)"><path fill="#ff3131" d="M 187.496094 59.308594 C 169.949219 59.308594 156.101562 74.714844 156.101562 93.023438 L 144.683594 93.023438 C 132.085938 93.023438 121.847656 103.257812 121.847656 115.855469 L 121.847656 132.980469 C 118.707031 132.980469 116.140625 135.546875 116.140625 138.691406 C 116.140625 141.835938 118.707031 144.398438 121.847656 144.398438 L 253.144531 144.398438 C 256.289062 144.398438 258.851562 141.835938 258.851562 138.691406 C 258.851562 135.546875 256.289062 132.980469 253.144531 132.980469 L 253.144531 115.855469 C 253.144531 103.257812 242.910156 93.023438 230.308594 93.023438 L 218.894531 93.023438 C 218.894531 74.714844 205.046875 59.308594 187.496094 59.308594 Z M 187.496094 70.722656 C 198.3125 70.722656 207.476562 80.378906 207.476562 93.023438 L 167.515625 93.023438 C 167.515625 80.378906 176.683594 70.722656 187.496094 70.722656 Z M 121.847656 155.816406 L 121.847656 184.359375 C 118.707031 184.359375 116.140625 186.921875 116.140625 190.066406 C 116.140625 193.210938 118.707031 195.773438 121.847656 195.773438 L 253.144531 195.773438 C 256.289062 195.773438 258.851562 193.210938 258.851562 190.066406 C 258.851562 186.921875 256.289062 184.359375 253.144531 184.359375 L 253.144531 155.816406 Z M 121.847656 207.191406 L 121.847656 241.441406 C 118.707031 241.441406 116.140625 244.007812 116.140625 247.152344 C 116.140625 250.292969 118.707031 252.859375 121.847656 252.859375 L 253.144531 252.859375 C 256.289062 252.859375 258.851562 250.292969 258.851562 247.152344 C 258.851562 244.007812 256.289062 241.441406 253.144531 241.441406 L 253.144531 207.191406 Z M 121.847656 264.277344 L 121.847656 292.816406 C 121.847656 305.417969 132.085938 315.652344 144.683594 315.652344 L 230.308594 315.652344 C 242.910156 315.652344 253.144531 305.417969 253.144531 292.816406 L 253.144531 264.277344 Z M 121.847656 264.277344 " fill-opacity="1" fill-rule="nonzero"/></g><path fill="#ff3131" d="M 173.640625 216.804688 C 172.082031 216.828125 170.382812 217.019531 168.546875 217.410156 C 153.882812 220.554688 148.648438 235.484375 139.222656 241.507812 C 129.792969 247.53125 120.21875 244.636719 118.789062 242.027344 C 117.363281 239.417969 117.738281 236.53125 120.097656 234.960938 C 123.957031 232.386719 124.289062 237.839844 124.289062 237.839844 C 124.289062 237.839844 125.085938 228.753906 117.214844 233.125 C 112.503906 235.742188 112.621094 245.917969 120.621094 251.71875 C 130.683594 259.011719 144.882812 257.410156 156.765625 255.125 C 167.652344 253.027344 180.667969 246.441406 186.359375 239.933594 C 186.800781 239.433594 187.183594 238.910156 187.511719 238.375 C 187.839844 238.910156 188.214844 239.433594 188.65625 239.933594 C 194.347656 246.441406 207.363281 253.027344 218.25 255.125 C 230.132812 257.410156 244.324219 259.011719 254.386719 251.71875 C 262.386719 245.921875 262.507812 235.742188 257.792969 233.125 C 249.925781 228.753906 250.726562 237.839844 250.726562 237.839844 C 250.726562 237.839844 251.050781 232.386719 254.914062 234.960938 C 257.269531 236.53125 257.652344 239.417969 256.222656 242.027344 C 254.796875 244.636719 245.222656 247.53125 235.792969 241.507812 C 226.367188 235.484375 221.128906 220.550781 206.460938 217.410156 C 196.085938 215.1875 190.171875 219.535156 187.503906 223.183594 C 185.308594 220.179688 180.917969 216.699219 173.640625 216.804688 Z M 173.640625 216.804688 " fill-opacity="1" fill-rule="nonzero"/><g clip-path="url(#6725394888)"><path stroke-linecap="butt" transform="matrix(0.129545, 0, 0, 0.129545, 124.581997, 156.920994)" fill="none" stroke-linejoin="miter" d="M 378.699943 462.262238 C 366.668637 462.44316 353.5518 463.920689 339.379585 466.936054 C 226.182786 491.209741 185.776896 606.456988 113.01614 652.953915 C 40.225231 699.450842 -33.681363 677.106988 -44.717598 656.964351 C -55.72368 636.821713 -52.82893 614.538166 -34.616126 602.416399 C -4.82432 582.545145 -2.26126 624.639639 -2.26126 624.639639 C -2.26126 624.639639 3.890084 554.502251 -56.869519 588.244184 C -93.23482 608.447129 -92.33021 686.997385 -30.575537 731.775554 C 47.100263 788.072417 156.708778 775.709421 248.436179 758.069536 C 332.474399 741.877027 432.946358 691.037974 476.880225 640.801995 C 480.287587 636.942328 483.242645 632.901739 485.775551 628.770689 C 488.308458 632.901739 491.203208 636.942328 494.61057 640.801995 C 538.544437 691.037974 639.016396 741.877027 723.054616 758.069536 C 814.782017 775.709421 924.330224 788.072417 1002.006024 731.775554 C 1063.760698 687.027539 1064.695461 608.447129 1028.300006 588.244184 C 967.570557 554.502251 973.752055 624.639639 973.752055 624.639639 C 973.752055 624.639639 976.254808 582.545145 1006.076767 602.416399 C 1024.259418 614.538166 1027.214475 636.821713 1016.17824 656.964351 C 1005.172158 677.106988 931.265564 699.450842 858.474655 652.953915 C 785.713899 606.456988 745.277856 491.179588 632.050903 466.936054 C 551.962811 449.778628 506.310186 483.339639 485.715244 511.503147 C 468.768893 488.314991 434.876191 461.44809 378.699943 462.262238 Z M 378.699943 462.262238 " stroke="#000000" stroke-width="1.662" stroke-opacity="1" stroke-miterlimit="4"/></g><g fill="#ff3131" fill-opacity="1"><g transform="translate(122.46795, 208.377911)"><g><path d="M 7.046875 0 L 2.9375 0 L 2.9375 -22.625 L 8.796875 -22.625 L 14.515625 -5.984375 L 14.84375 -5.984375 L 20.546875 -22.625 L 26.25 -22.625 L 26.25 0 L 22.015625 0 L 22.015625 -14.953125 L 21.625 -15.015625 L 16.390625 0 L 12.65625 0 L 7.4375 -15.015625 L 7.046875 -14.953125 Z M 7.046875 0 "/></g></g></g><g fill="#ff3131" fill-opacity="1"><g transform="translate(151.671386, 208.377911)"><g><path d="M 21.71875 0 L 17.015625 0 L 15.3125 -5.21875 L 6.640625 -5.21875 L 4.9375 0 L 0.34375 0 L 8.15625 -22.625 L 13.90625 -22.625 Z M 10.765625 -17.90625 L 7.84375 -8.984375 L 14.078125 -8.984375 L 11.140625 -17.90625 Z M 10.765625 -17.90625 "/></g></g></g><g fill="#ff3131" fill-opacity="1"><g transform="translate(173.724856, 208.377911)"><g><path d="M 10.03125 0.328125 C 8.457031 0.328125 7.0625 0.132812 5.84375 -0.25 C 4.625 -0.632812 3.601562 -1.140625 2.78125 -1.765625 C 1.96875 -2.398438 1.34375 -3.097656 0.90625 -3.859375 L 3.375 -6.859375 L 3.765625 -6.859375 C 4.441406 -5.847656 5.300781 -5.039062 6.34375 -4.4375 C 7.394531 -3.84375 8.625 -3.546875 10.03125 -3.546875 C 11.226562 -3.546875 12.128906 -3.796875 12.734375 -4.296875 C 13.347656 -4.804688 13.65625 -5.503906 13.65625 -6.390625 C 13.65625 -6.929688 13.554688 -7.378906 13.359375 -7.734375 C 13.160156 -8.097656 12.832031 -8.410156 12.375 -8.671875 C 11.925781 -8.929688 11.316406 -9.148438 10.546875 -9.328125 L 7.625 -10 C 5.59375 -10.46875 4.078125 -11.238281 3.078125 -12.3125 C 2.085938 -13.394531 1.59375 -14.796875 1.59375 -16.515625 C 1.59375 -17.796875 1.910156 -18.921875 2.546875 -19.890625 C 3.191406 -20.859375 4.125 -21.609375 5.34375 -22.140625 C 6.570312 -22.679688 8.035156 -22.953125 9.734375 -22.953125 C 11.484375 -22.953125 12.976562 -22.722656 14.21875 -22.265625 C 15.457031 -21.804688 16.507812 -21.101562 17.375 -20.15625 L 15.15625 -17.125 L 14.765625 -17.125 C 14.128906 -17.789062 13.394531 -18.289062 12.5625 -18.625 C 11.738281 -18.96875 10.796875 -19.140625 9.734375 -19.140625 C 8.503906 -19.140625 7.566406 -18.921875 6.921875 -18.484375 C 6.285156 -18.046875 5.96875 -17.445312 5.96875 -16.6875 C 5.96875 -15.976562 6.191406 -15.410156 6.640625 -14.984375 C 7.097656 -14.554688 7.878906 -14.226562 8.984375 -14 L 11.953125 -13.375 C 14.148438 -12.90625 15.742188 -12.113281 16.734375 -11 C 17.722656 -9.894531 18.21875 -8.453125 18.21875 -6.671875 C 18.21875 -5.253906 17.910156 -4.019531 17.296875 -2.96875 C 16.691406 -1.925781 15.773438 -1.113281 14.546875 -0.53125 C 13.316406 0.0390625 11.8125 0.328125 10.03125 0.328125 Z M 10.03125 0.328125 "/></g></g></g><g fill="#ff3131" fill-opacity="1"><g transform="translate(193.162858, 208.377911)"><g><path d="M 18.140625 -22.625 L 18.140625 -18.875 L 11.609375 -18.875 L 11.609375 0 L 7.15625 0 L 7.15625 -18.875 L 0.625 -18.875 L 0.625 -22.625 Z M 18.140625 -22.625 "/></g></g></g><g fill="#ff3131" fill-opacity="1"><g transform="translate(211.919911, 208.377911)"><g><path d="M 7.421875 -9.9375 L 7.421875 -3.75 L 18.21875 -3.75 L 18.21875 0 L 2.9375 0 L 2.9375 -22.625 L 17.96875 -22.625 L 17.96875 -18.890625 L 7.421875 -18.890625 L 7.421875 -13.59375 L 16.640625 -13.59375 L 16.640625 -9.9375 Z M 7.421875 -9.9375 "/></g></g></g><g fill="#ff3131" fill-opacity="1"><g transform="translate(231.373394, 208.377911)"><g><path d="M 2.9375 0 L 2.9375 -22.625 L 12.03125 -22.625 C 14.375 -22.625 16.140625 -22.082031 17.328125 -21 C 18.523438 -19.925781 19.125 -18.441406 19.125 -16.546875 C 19.125 -15.171875 18.773438 -14.046875 18.078125 -13.171875 C 17.378906 -12.296875 16.335938 -11.625 14.953125 -11.15625 L 14.953125 -10.84375 C 15.660156 -10.53125 16.234375 -10.066406 16.671875 -9.453125 C 17.117188 -8.847656 17.535156 -7.945312 17.921875 -6.75 L 20.1875 0 L 15.59375 0 L 13.375 -6.765625 C 13.144531 -7.441406 12.890625 -7.96875 12.609375 -8.34375 C 12.328125 -8.726562 11.960938 -9.003906 11.515625 -9.171875 C 11.078125 -9.335938 10.507812 -9.421875 9.8125 -9.421875 L 7.421875 -9.421875 L 7.421875 0 Z M 11.484375 -12.96875 C 13.648438 -12.96875 14.734375 -13.976562 14.734375 -16 C 14.734375 -18.0625 13.648438 -19.09375 11.484375 -19.09375 L 7.421875 -19.09375 L 7.421875 -12.96875 Z M 11.484375 -12.96875 "/></g></g></g><g fill="#ff3131" fill-opacity="1"><g transform="translate(122.56053, 175.0637)"><g><path d="M 18.140625 -22.625 L 18.140625 -18.859375 L 11.609375 -18.859375 L 11.609375 0 L 7.140625 0 L 7.140625 -18.859375 L 0.625 -18.859375 L 0.625 -22.625 Z M 18.140625 -22.625 "/></g></g></g><g fill="#ff3131" fill-opacity="1"><g transform="translate(147.113852, 175.0637)"><g><path d="M 7.40625 0 L 2.9375 0 L 2.9375 -22.625 L 7.40625 -22.625 Z M 7.40625 0 "/></g></g></g><g fill="#ff3131" fill-opacity="1"><g transform="translate(163.281129, 175.0637)"><g><path d="M 17.28125 -22.625 L 17.28125 -18.875 L 7.40625 -18.875 L 7.40625 -12.890625 L 16.375 -12.890625 L 16.375 -9.1875 L 7.40625 -9.1875 L 7.40625 0 L 2.9375 0 L 2.9375 -22.625 Z M 17.28125 -22.625 "/></g></g></g><g fill="#ff3131" fill-opacity="1"><g transform="translate(187.370283, 175.0637)"><g><path d="M 17.28125 -22.625 L 17.28125 -18.875 L 7.40625 -18.875 L 7.40625 -12.890625 L 16.375 -12.890625 L 16.375 -9.1875 L 7.40625 -9.1875 L 7.40625 0 L 2.9375 0 L 2.9375 -22.625 Z M 17.28125 -22.625 "/></g></g></g><g fill="#ff3131" fill-opacity="1"><g transform="translate(211.459431, 175.0637)"><g><path d="M 7.40625 0 L 2.9375 0 L 2.9375 -22.625 L 7.40625 -22.625 Z M 7.40625 0 "/></g></g></g><g fill="#ff3131" fill-opacity="1"><g transform="translate(227.626704, 175.0637)"><g><path d="M 7.265625 0 L 2.9375 0 L 2.9375 -22.625 L 8.0625 -22.625 L 17.140625 -8.046875 L 17.546875 -8.109375 L 17.546875 -22.625 L 21.84375 -22.625 L 21.84375 0 L 17.265625 0 L 7.65625 -15.5625 L 7.265625 -15.5 Z M 7.265625 0 "/></g></g></g><g clip-path="url(#d817fb0693)"><path fill="#ff3131" d="M 187.496094 59.308594 C 169.949219 59.308594 156.101562 74.714844 156.101562 93.023438 L 144.683594 93.023438 C 132.085938 93.023438 121.847656 103.257812 121.847656 115.855469 L 121.847656 132.980469 C 118.707031 132.980469 116.140625 135.546875 116.140625 138.691406 C 116.140625 141.835938 118.707031 144.398438 121.847656 144.398438 L 253.144531 144.398438 C 256.289062 144.398438 258.851562 141.835938 258.851562 138.691406 C 258.851562 135.546875 256.289062 132.980469 253.144531 132.980469 L 253.144531 115.855469 C 253.144531 103.257812 242.910156 93.023438 230.308594 93.023438 L 218.894531 93.023438 C 218.894531 74.714844 205.046875 59.308594 187.496094 59.308594 Z M 187.496094 70.722656 C 198.3125 70.722656 207.476562 80.378906 207.476562 93.023438 L 167.515625 93.023438 C 167.515625 80.378906 176.683594 70.722656 187.496094 70.722656 Z M 121.847656 155.816406 L 121.847656 184.359375 C 118.707031 184.359375 116.140625 186.921875 116.140625 190.066406 C 116.140625 193.210938 118.707031 195.773438 121.847656 195.773438 L 253.144531 195.773438 C 256.289062 195.773438 258.851562 193.210938 258.851562 190.066406 C 258.851562 186.921875 256.289062 184.359375 253.144531 184.359375 L 253.144531 155.816406 Z M 121.847656 207.191406 L 121.847656 241.441406 C 118.707031 241.441406 116.140625 244.007812 116.140625 247.152344 C 116.140625 250.292969 118.707031 252.859375 121.847656 252.859375 L 253.144531 252.859375 C 256.289062 252.859375 258.851562 250.292969 258.851562 247.152344 C 258.851562 244.007812 256.289062 241.441406 253.144531 241.441406 L 253.144531 207.191406 Z M 121.847656 264.277344 L 121.847656 292.816406 C 121.847656 305.417969 132.085938 315.652344 144.683594 315.652344 L 230.308594 315.652344 C 242.910156 315.652344 253.144531 305.417969 253.144531 292.816406 L 253.144531 264.277344 Z M 121.847656 264.277344 " fill-opacity="1" fill-rule="nonzero"/></g></svg>