<svg xmlns="http://www.w3.org/2000/svg" xmlns:xlink="http://www.w3.org/1999/xlink" width="500" zoomAndPan="magnify" viewBox="0 0 375 374.999991" height="500" preserveAspectRatio="xMidYMid meet" version="1.0"><defs><g/><clipPath id="c38c5e7a9a"><path d="M 83.4375 0 L 291.9375 0 L 291.9375 129.75 L 83.4375 129.75 Z M 83.4375 0 " clip-rule="nonzero"/></clipPath><clipPath id="d273182c36"><path d="M 78.128906 228 L 297 228 L 297 291 L 78.128906 291 Z M 78.128906 228 " clip-rule="nonzero"/></clipPath><clipPath id="f7b113d825"><path d="M 83.4375 297.039062 L 291.9375 297.039062 L 291.9375 375 L 83.4375 375 Z M 83.4375 297.039062 " clip-rule="nonzero"/></clipPath></defs><g clip-path="url(#c38c5e7a9a)"><path fill="#ff3131" d="M 187.5 0.550781 C 161.90625 0.550781 141.710938 23.023438 141.710938 49.722656 L 125.0625 49.722656 C 106.6875 49.722656 91.761719 64.648438 91.761719 83.019531 L 91.761719 107.996094 C 87.175781 107.996094 83.4375 111.734375 83.4375 116.320312 C 83.4375 120.90625 87.175781 124.644531 91.761719 124.644531 L 283.238281 124.644531 C 287.824219 124.644531 291.5625 120.90625 291.5625 116.320312 C 291.5625 111.734375 287.824219 107.996094 283.238281 107.996094 L 283.238281 83.019531 C 283.238281 64.648438 268.3125 49.722656 249.9375 49.722656 L 233.289062 49.722656 C 233.289062 23.023438 213.09375 0.550781 187.5 0.550781 Z M 187.5 17.203125 C 203.273438 17.203125 216.636719 31.28125 216.636719 49.722656 L 158.363281 49.722656 C 158.363281 31.28125 171.726562 17.203125 187.5 17.203125 Z M 91.761719 141.296875 L 91.761719 182.921875 C 87.175781 182.921875 83.4375 186.660156 83.4375 191.246094 C 83.4375 195.832031 87.175781 199.570312 91.761719 199.570312 L 283.238281 199.570312 C 287.824219 199.570312 291.5625 195.832031 291.5625 191.246094 C 291.5625 186.660156 287.824219 182.921875 283.238281 182.921875 L 283.238281 141.296875 Z M 91.761719 216.222656 L 91.761719 266.171875 C 87.175781 266.171875 83.4375 269.910156 83.4375 274.496094 C 83.4375 279.082031 87.175781 282.820312 91.761719 282.820312 L 283.238281 282.820312 C 287.824219 282.820312 291.5625 279.082031 291.5625 274.496094 C 291.5625 269.910156 287.824219 266.171875 283.238281 266.171875 L 283.238281 216.222656 Z M 91.761719 299.472656 L 91.761719 341.097656 C 91.761719 359.46875 106.6875 374.394531 125.0625 374.394531 L 249.9375 374.394531 C 268.3125 374.394531 283.238281 359.46875 283.238281 341.097656 L 283.238281 299.472656 Z M 91.761719 299.472656 " fill-opacity="1" fill-rule="nonzero"/></g><path fill="#ff3131" d="M 167.289062 230.234375 C 165.011719 230.269531 162.535156 230.546875 159.863281 231.117188 C 138.472656 235.703125 130.84375 257.476562 117.09375 266.261719 C 103.347656 275.042969 89.386719 270.820312 87.300781 267.015625 C 85.21875 263.210938 85.769531 259.003906 89.207031 256.710938 C 94.835938 252.957031 95.320312 260.910156 95.320312 260.910156 C 95.320312 260.910156 96.480469 247.660156 85.003906 254.03125 C 78.132812 257.851562 78.304688 272.691406 89.972656 281.148438 C 104.644531 291.78125 125.351562 289.449219 142.679688 286.113281 C 158.554688 283.058594 177.535156 273.453125 185.835938 263.964844 C 186.476562 263.234375 187.035156 262.472656 187.515625 261.6875 C 187.992188 262.46875 188.542969 263.234375 189.183594 263.964844 C 197.488281 273.453125 216.464844 283.058594 232.34375 286.113281 C 249.671875 289.449219 270.367188 291.78125 285.039062 281.148438 C 296.707031 272.691406 296.878906 257.851562 290.003906 254.03125 C 278.53125 247.660156 279.699219 260.910156 279.699219 260.910156 C 279.699219 260.910156 280.171875 252.957031 285.804688 256.710938 C 289.242188 259.003906 289.800781 263.210938 287.71875 267.015625 C 285.636719 270.820312 271.675781 275.042969 257.925781 266.261719 C 244.175781 257.472656 236.539062 235.699219 215.148438 231.113281 C 200.019531 227.875 191.394531 234.214844 187.507812 239.535156 C 184.300781 235.15625 177.898438 230.078125 167.289062 230.234375 Z M 167.289062 230.234375 " fill-opacity="1" fill-rule="nonzero"/><g clip-path="url(#d273182c36)"><path stroke-linecap="butt" transform="matrix(0.188913, 0, 0, 0.188913, 95.746779, 142.906851)" fill="none" stroke-linejoin="miter" d="M 378.705234 462.263558 C 366.650237 462.449656 353.540686 463.91776 339.39726 466.936679 C 226.167135 491.212093 185.78393 606.468614 112.999044 652.972367 C 40.234835 699.455442 -33.666637 677.103038 -44.708435 656.963129 C -55.729556 636.82322 -52.814025 614.553526 -34.617803 602.415819 C -4.821491 582.544718 -2.257478 624.644158 -2.257478 624.644158 C -2.257478 624.644158 3.883747 554.505995 -56.86682 588.231037 C -93.238585 608.453656 -92.328774 687.007572 -30.565009 731.774412 C 47.099773 788.058634 156.711331 775.714152 248.436829 758.055546 C 332.470289 741.885722 432.94238 691.039689 476.88212 640.813982 C 480.273234 636.947285 483.23012 632.915168 485.773456 628.758985 C 488.296113 632.89449 491.211644 636.947285 494.602758 640.813982 C 538.563176 691.039689 639.01459 741.885722 723.068727 758.055546 C 814.794225 775.714152 924.34375 788.058634 1002.008532 731.774412 C 1063.772298 687.007572 1064.682109 608.453656 1028.289666 588.231037 C 967.559776 554.505995 973.742356 624.644158 973.742356 624.644158 C 973.742356 624.644158 976.244336 582.544718 1006.061327 602.415819 C 1024.257548 614.553526 1027.214434 636.82322 1016.193314 656.963129 C 1005.172193 677.103038 931.270721 699.455442 858.485834 652.972367 C 785.700948 606.447937 745.276388 491.191415 632.046264 466.916001 C 551.962211 449.774333 506.306237 483.333956 485.7321 511.496744 C 468.755853 488.317239 434.86539 461.436457 378.705234 462.263558 Z M 378.705234 462.263558 " stroke="#000000" stroke-width="1.662" stroke-opacity="1" stroke-miterlimit="4"/></g><g fill="#ff3131" fill-opacity="1"><g transform="translate(92.664044, 217.946158)"><g><path d="M 10.265625 0 L 4.28125 0 L 4.28125 -33 L 12.8125 -33 L 21.171875 -8.734375 L 21.640625 -8.734375 L 29.953125 -33 L 38.28125 -33 L 38.28125 0 L 32.09375 0 L 32.09375 -21.796875 L 31.53125 -21.890625 L 23.90625 0 L 18.453125 0 L 10.828125 -21.890625 L 10.265625 -21.796875 Z M 10.265625 0 "/></g></g></g><g fill="#ff3131" fill-opacity="1"><g transform="translate(135.251288, 217.946158)"><g><path d="M 31.65625 0 L 24.796875 0 L 22.3125 -7.609375 L 9.6875 -7.609375 L 7.203125 0 L 0.5 0 L 11.890625 -33 L 20.265625 -33 Z M 15.6875 -26.109375 L 11.4375 -13.09375 L 20.515625 -13.09375 L 16.25 -26.109375 Z M 15.6875 -26.109375 "/></g></g></g><g fill="#ff3131" fill-opacity="1"><g transform="translate(167.411768, 217.946158)"><g><path d="M 14.625 0.46875 C 12.332031 0.46875 10.296875 0.1875 8.515625 -0.375 C 6.734375 -0.9375 5.25 -1.675781 4.0625 -2.59375 C 2.875 -3.507812 1.960938 -4.519531 1.328125 -5.625 L 4.921875 -10 L 5.484375 -10 C 6.472656 -8.519531 7.734375 -7.34375 9.265625 -6.46875 C 10.796875 -5.601562 12.582031 -5.171875 14.625 -5.171875 C 16.363281 -5.171875 17.675781 -5.535156 18.5625 -6.265625 C 19.457031 -7.003906 19.90625 -8.023438 19.90625 -9.328125 C 19.90625 -10.109375 19.757812 -10.757812 19.46875 -11.28125 C 19.1875 -11.8125 18.710938 -12.265625 18.046875 -12.640625 C 17.390625 -13.015625 16.5 -13.335938 15.375 -13.609375 L 11.125 -14.578125 C 8.164062 -15.253906 5.957031 -16.378906 4.5 -17.953125 C 3.050781 -19.523438 2.328125 -21.566406 2.328125 -24.078125 C 2.328125 -25.941406 2.789062 -27.582031 3.71875 -29 C 4.65625 -30.414062 6.015625 -31.515625 7.796875 -32.296875 C 9.578125 -33.078125 11.707031 -33.46875 14.1875 -33.46875 C 16.738281 -33.46875 18.921875 -33.128906 20.734375 -32.453125 C 22.546875 -31.785156 24.078125 -30.765625 25.328125 -29.390625 L 22.09375 -24.953125 L 21.53125 -24.953125 C 20.59375 -25.929688 19.519531 -26.664062 18.3125 -27.15625 C 17.113281 -27.644531 15.738281 -27.890625 14.1875 -27.890625 C 12.40625 -27.890625 11.046875 -27.570312 10.109375 -26.9375 C 9.179688 -26.3125 8.71875 -25.441406 8.71875 -24.328125 C 8.71875 -23.285156 9.039062 -22.457031 9.6875 -21.84375 C 10.34375 -21.226562 11.476562 -20.75 13.09375 -20.40625 L 17.421875 -19.5 C 20.628906 -18.820312 22.953125 -17.671875 24.390625 -16.046875 C 25.835938 -14.429688 26.5625 -12.328125 26.5625 -9.734375 C 26.5625 -7.671875 26.117188 -5.875 25.234375 -4.34375 C 24.347656 -2.8125 23.007812 -1.625 21.21875 -0.78125 C 19.425781 0.0507812 17.226562 0.46875 14.625 0.46875 Z M 14.625 0.46875 "/></g></g></g><g fill="#ff3131" fill-opacity="1"><g transform="translate(195.758122, 217.946158)"><g><path d="M 26.453125 -33 L 26.453125 -27.515625 L 16.921875 -27.515625 L 16.921875 0 L 10.421875 0 L 10.421875 -27.515625 L 0.90625 -27.515625 L 0.90625 -33 Z M 26.453125 -33 "/></g></g></g><g fill="#ff3131" fill-opacity="1"><g transform="translate(223.111451, 217.946158)"><g><path d="M 10.8125 -14.484375 L 10.8125 -5.46875 L 26.5625 -5.46875 L 26.5625 0 L 4.28125 0 L 4.28125 -33 L 26.203125 -33 L 26.203125 -27.53125 L 10.8125 -27.53125 L 10.8125 -19.8125 L 24.265625 -19.8125 L 24.265625 -14.484375 Z M 10.8125 -14.484375 "/></g></g></g><g fill="#ff3131" fill-opacity="1"><g transform="translate(251.48038, 217.946158)"><g><path d="M 4.28125 0 L 4.28125 -33 L 17.53125 -33 C 20.945312 -33 23.523438 -32.210938 25.265625 -30.640625 C 27.003906 -29.066406 27.875 -26.894531 27.875 -24.125 C 27.875 -22.125 27.363281 -20.484375 26.34375 -19.203125 C 25.332031 -17.921875 23.816406 -16.941406 21.796875 -16.265625 L 21.796875 -15.796875 C 22.835938 -15.347656 23.675781 -14.675781 24.3125 -13.78125 C 24.957031 -12.894531 25.566406 -11.582031 26.140625 -9.84375 L 29.421875 0 L 22.71875 0 L 19.5 -9.859375 C 19.164062 -10.859375 18.789062 -11.628906 18.375 -12.171875 C 17.96875 -12.722656 17.441406 -13.125 16.796875 -13.375 C 16.160156 -13.625 15.332031 -13.75 14.3125 -13.75 L 10.8125 -13.75 L 10.8125 0 Z M 16.75 -18.90625 C 19.90625 -18.90625 21.484375 -20.378906 21.484375 -23.328125 C 21.484375 -26.328125 19.90625 -27.828125 16.75 -27.828125 L 10.8125 -27.828125 L 10.8125 -18.90625 Z M 16.75 -18.90625 "/></g></g></g><g fill="#ff3131" fill-opacity="1"><g transform="translate(92.799053, 169.364186)"><g><path d="M 26.453125 -33 L 26.453125 -27.515625 L 16.921875 -27.515625 L 16.921875 0 L 10.421875 0 L 10.421875 -27.515625 L 0.90625 -27.515625 L 0.90625 -33 Z M 26.453125 -33 "/></g></g></g><g fill="#ff3131" fill-opacity="1"><g transform="translate(128.605059, 169.364186)"><g><path d="M 10.8125 0 L 4.28125 0 L 4.28125 -33 L 10.8125 -33 Z M 10.8125 0 "/></g></g></g><g fill="#ff3131" fill-opacity="1"><g transform="translate(152.181729, 169.364186)"><g><path d="M 25.203125 -33 L 25.203125 -27.53125 L 10.8125 -27.53125 L 10.8125 -18.796875 L 23.875 -18.796875 L 23.875 -13.40625 L 10.8125 -13.40625 L 10.8125 0 L 4.28125 0 L 4.28125 -33 Z M 25.203125 -33 "/></g></g></g><g fill="#ff3131" fill-opacity="1"><g transform="translate(187.31084, 169.364186)"><g><path d="M 25.203125 -33 L 25.203125 -27.53125 L 10.8125 -27.53125 L 10.8125 -18.796875 L 23.875 -18.796875 L 23.875 -13.40625 L 10.8125 -13.40625 L 10.8125 0 L 4.28125 0 L 4.28125 -33 Z M 25.203125 -33 "/></g></g></g><g fill="#ff3131" fill-opacity="1"><g transform="translate(222.439942, 169.364186)"><g><path d="M 10.8125 0 L 4.28125 0 L 4.28125 -33 L 10.8125 -33 Z M 10.8125 0 "/></g></g></g><g fill="#ff3131" fill-opacity="1"><g transform="translate(246.016608, 169.364186)"><g><path d="M 10.609375 0 L 4.28125 0 L 4.28125 -33 L 11.75 -33 L 25 -11.734375 L 25.59375 -11.828125 L 25.59375 -33 L 31.859375 -33 L 31.859375 0 L 25.1875 0 L 11.171875 -22.703125 L 10.609375 -22.609375 Z M 10.609375 0 "/></g></g></g><g clip-path="url(#f7b113d825)"><path fill="#ff3131" d="M 187.5 0.550781 C 161.90625 0.550781 141.710938 23.023438 141.710938 49.722656 L 125.0625 49.722656 C 106.6875 49.722656 91.761719 64.648438 91.761719 83.019531 L 91.761719 107.996094 C 87.175781 107.996094 83.4375 111.734375 83.4375 116.320312 C 83.4375 120.90625 87.175781 124.644531 91.761719 124.644531 L 283.238281 124.644531 C 287.824219 124.644531 291.5625 120.90625 291.5625 116.320312 C 291.5625 111.734375 287.824219 107.996094 283.238281 107.996094 L 283.238281 83.019531 C 283.238281 64.648438 268.3125 49.722656 249.9375 49.722656 L 233.289062 49.722656 C 233.289062 23.023438 213.09375 0.550781 187.5 0.550781 Z M 187.5 17.203125 C 203.273438 17.203125 216.636719 31.28125 216.636719 49.722656 L 158.363281 49.722656 C 158.363281 31.28125 171.726562 17.203125 187.5 17.203125 Z M 91.761719 141.296875 L 91.761719 182.921875 C 87.175781 182.921875 83.4375 186.660156 83.4375 191.246094 C 83.4375 195.832031 87.175781 199.570312 91.761719 199.570312 L 283.238281 199.570312 C 287.824219 199.570312 291.5625 195.832031 291.5625 191.246094 C 291.5625 186.660156 287.824219 182.921875 283.238281 182.921875 L 283.238281 141.296875 Z M 91.761719 216.222656 L 91.761719 266.171875 C 87.175781 266.171875 83.4375 269.910156 83.4375 274.496094 C 83.4375 279.082031 87.175781 282.820312 91.761719 282.820312 L 283.238281 282.820312 C 287.824219 282.820312 291.5625 279.082031 291.5625 274.496094 C 291.5625 269.910156 287.824219 266.171875 283.238281 266.171875 L 283.238281 216.222656 Z M 91.761719 299.472656 L 91.761719 341.097656 C 91.761719 359.46875 106.6875 374.394531 125.0625 374.394531 L 249.9375 374.394531 C 268.3125 374.394531 283.238281 359.46875 283.238281 341.097656 L 283.238281 299.472656 Z M 91.761719 299.472656 " fill-opacity="1" fill-rule="nonzero"/></g></svg>